<mxfile host="Electron" modified="2024-04-03T10:08:14.856Z" agent="Mozilla/5.0 (Windows NT 10.0; Win64; x64) AppleWebKit/537.36 (KHTML, like Gecko) draw.io/24.1.0 Chrome/120.0.6099.109 Electron/28.1.0 Safari/537.36" etag="tuqPkDKlPGBltiYQYCDt" version="24.1.0" type="device">
  <diagram name="Page-1" id="3HNNUvmI26e6U34l2Z3O">
    <mxGraphModel dx="940" dy="700" grid="1" gridSize="10" guides="1" tooltips="1" connect="1" arrows="1" fold="1" page="1" pageScale="1" pageWidth="980" pageHeight="690" math="0" shadow="0">
      <root>
        <mxCell id="0" />
        <mxCell id="1" parent="0" />
        <mxCell id="q-ZejeubLX4BjsPiB8f2-21" value="" style="rounded=1;whiteSpace=wrap;html=1;fillColor=#333333;arcSize=5;fontColor=#2a2b2e;glass=0;shadow=0;strokeColor=none;" parent="1" vertex="1">
          <mxGeometry x="171" y="94.26" width="638.61" height="425.74" as="geometry" />
        </mxCell>
        <mxCell id="q-ZejeubLX4BjsPiB8f2-13" value="1" style="verticalLabelPosition=middle;verticalAlign=middle;html=1;shape=mxgraph.infographic.circularCallout;dy=15;fillColor=#00CC66;strokeColor=none;labelPosition=center;align=center;fontColor=#00CC66;fontStyle=1;fontSize=24;whiteSpace=wrap;fontFamily=Aptos;rotation=0;" parent="1" vertex="1">
          <mxGeometry x="250" y="140" width="80" height="80" as="geometry" />
        </mxCell>
        <mxCell id="Ktv8eCCp_lJ064TTi4eM-1" value="6" style="verticalLabelPosition=middle;verticalAlign=middle;html=1;shape=mxgraph.infographic.circularCallout;dy=15;fillColor=#EA6B66;strokeColor=none;labelPosition=center;align=center;fontColor=#EA6B66;fontStyle=1;fontSize=24;whiteSpace=wrap;fontFamily=Aptos;rotation=-90;" parent="1" vertex="1">
          <mxGeometry x="360" y="380" width="80" height="80" as="geometry" />
        </mxCell>
        <mxCell id="Ktv8eCCp_lJ064TTi4eM-2" value="8" style="verticalLabelPosition=middle;verticalAlign=middle;html=1;shape=mxgraph.infographic.circularCallout;dy=15;fillColor=#FFE599;strokeColor=none;labelPosition=center;align=center;fontColor=#FFE599;fontStyle=1;fontSize=24;whiteSpace=wrap;fontFamily=Aptos;rotation=105;" parent="1" vertex="1">
          <mxGeometry x="340" y="255" width="80" height="80" as="geometry" />
        </mxCell>
        <mxCell id="_qAm0UsqFptN8zUbXJNy-1" value="1" style="verticalLabelPosition=middle;verticalAlign=middle;html=1;shape=mxgraph.infographic.circularCallout;dy=15;fillColor=#00CC66;strokeColor=none;labelPosition=center;align=center;fontColor=#00CC66;fontStyle=1;fontSize=24;whiteSpace=wrap;fontFamily=Aptos;rotation=0;" vertex="1" parent="1">
          <mxGeometry x="350" y="140" width="80" height="80" as="geometry" />
        </mxCell>
        <mxCell id="_qAm0UsqFptN8zUbXJNy-3" value="1" style="verticalLabelPosition=middle;verticalAlign=middle;html=1;shape=mxgraph.infographic.circularCallout;dy=15;fillColor=#00CC66;strokeColor=none;labelPosition=center;align=center;fontColor=#00CC66;fontStyle=1;fontSize=24;whiteSpace=wrap;fontFamily=Aptos;rotation=0;" vertex="1" parent="1">
          <mxGeometry x="450" y="140" width="80" height="80" as="geometry" />
        </mxCell>
        <mxCell id="_qAm0UsqFptN8zUbXJNy-4" value="1" style="verticalLabelPosition=middle;verticalAlign=middle;html=1;shape=mxgraph.infographic.circularCallout;dy=15;fillColor=#00CC66;strokeColor=none;labelPosition=center;align=center;fontColor=#00CC66;fontStyle=1;fontSize=24;whiteSpace=wrap;fontFamily=Aptos;rotation=0;" vertex="1" parent="1">
          <mxGeometry x="550" y="140" width="80" height="80" as="geometry" />
        </mxCell>
        <mxCell id="_qAm0UsqFptN8zUbXJNy-5" value="8" style="verticalLabelPosition=middle;verticalAlign=middle;html=1;shape=mxgraph.infographic.circularCallout;dy=15;fillColor=#FFE599;strokeColor=none;labelPosition=center;align=center;fontColor=#FFE599;fontStyle=1;fontSize=24;whiteSpace=wrap;fontFamily=Aptos;rotation=105;" vertex="1" parent="1">
          <mxGeometry x="460" y="255" width="80" height="80" as="geometry" />
        </mxCell>
        <mxCell id="_qAm0UsqFptN8zUbXJNy-6" value="8" style="verticalLabelPosition=middle;verticalAlign=middle;html=1;shape=mxgraph.infographic.circularCallout;dy=15;fillColor=#FFE599;strokeColor=none;labelPosition=center;align=center;fontColor=#FFE599;fontStyle=1;fontSize=24;whiteSpace=wrap;fontFamily=Aptos;rotation=105;" vertex="1" parent="1">
          <mxGeometry x="580" y="265" width="80" height="80" as="geometry" />
        </mxCell>
        <mxCell id="_qAm0UsqFptN8zUbXJNy-7" value="6" style="verticalLabelPosition=middle;verticalAlign=middle;html=1;shape=mxgraph.infographic.circularCallout;dy=15;fillColor=#EA6B66;strokeColor=none;labelPosition=center;align=center;fontColor=#EA6B66;fontStyle=1;fontSize=24;whiteSpace=wrap;fontFamily=Aptos;rotation=-90;" vertex="1" parent="1">
          <mxGeometry x="260" y="380" width="80" height="80" as="geometry" />
        </mxCell>
        <mxCell id="_qAm0UsqFptN8zUbXJNy-8" value="6" style="verticalLabelPosition=middle;verticalAlign=middle;html=1;shape=mxgraph.infographic.circularCallout;dy=15;fillColor=#EA6B66;strokeColor=none;labelPosition=center;align=center;fontColor=#EA6B66;fontStyle=1;fontSize=24;whiteSpace=wrap;fontFamily=Aptos;rotation=-90;" vertex="1" parent="1">
          <mxGeometry x="460" y="380" width="80" height="80" as="geometry" />
        </mxCell>
        <mxCell id="_qAm0UsqFptN8zUbXJNy-9" value="6" style="verticalLabelPosition=middle;verticalAlign=middle;html=1;shape=mxgraph.infographic.circularCallout;dy=15;fillColor=#EA6B66;strokeColor=none;labelPosition=center;align=center;fontColor=#EA6B66;fontStyle=1;fontSize=24;whiteSpace=wrap;fontFamily=Aptos;rotation=-90;" vertex="1" parent="1">
          <mxGeometry x="560" y="380" width="80" height="80" as="geometry" />
        </mxCell>
        <mxCell id="_qAm0UsqFptN8zUbXJNy-10" value="6" style="verticalLabelPosition=middle;verticalAlign=middle;html=1;shape=mxgraph.infographic.circularCallout;dy=15;fillColor=#EA6B66;strokeColor=none;labelPosition=center;align=center;fontColor=#EA6B66;fontStyle=1;fontSize=24;whiteSpace=wrap;fontFamily=Aptos;rotation=-90;" vertex="1" parent="1">
          <mxGeometry x="660" y="380" width="80" height="80" as="geometry" />
        </mxCell>
      </root>
    </mxGraphModel>
  </diagram>
</mxfile>
